<svg xmlns="http://www.w3.org/2000/svg" xmlns:xlink="http://www.w3.org/1999/xlink" width="1890" zoomAndPan="magnify" viewBox="0 0 1417.5 425.249996" height="567" preserveAspectRatio="xMidYMid meet" version="1.0"><defs><g/><clipPath id="1d2e9dbab5"><path d="M 1 0 L 1416.003906 0 L 1416.003906 424.5 L 1 424.5 Z M 1 0 " clip-rule="nonzero"/></clipPath><clipPath id="235f3942d8"><path d="M 1 0 L 255 0 L 255 92 L 1 92 Z M 1 0 " clip-rule="nonzero"/></clipPath><clipPath id="9e74ca022a"><path d="M 1 135 L 49 135 L 49 157.972656 L 1 157.972656 Z M 1 135 " clip-rule="nonzero"/></clipPath><clipPath id="cbb48460dd"><path d="M 1 91 L 123 91 L 123 138 L 1 138 Z M 1 91 " clip-rule="nonzero"/></clipPath><clipPath id="6eb7ac65a6"><path d="M 1 121 L 138 121 L 138 144 L 1 144 Z M 1 121 " clip-rule="nonzero"/></clipPath><clipPath id="e0142e8fd9"><path d="M 1 82 L 247 82 L 247 105 L 1 105 Z M 1 82 " clip-rule="nonzero"/></clipPath><clipPath id="11d4785d4f"><path d="M 1 25 L 183 25 L 183 72 L 1 72 Z M 1 25 " clip-rule="nonzero"/></clipPath><clipPath id="89062a4faa"><path d="M 1 0 L 349 0 L 349 46 L 1 46 Z M 1 0 " clip-rule="nonzero"/></clipPath><clipPath id="99f03edbd2"><path d="M 1134 346 L 1416.003906 346 L 1416.003906 424.5 L 1134 424.5 Z M 1134 346 " clip-rule="nonzero"/></clipPath><clipPath id="aa9a917135"><path d="M 1340 280.605469 L 1416.003906 280.605469 L 1416.003906 303 L 1340 303 Z M 1340 280.605469 " clip-rule="nonzero"/></clipPath><clipPath id="d061bfa344"><path d="M 1266 301 L 1416.003906 301 L 1416.003906 347 L 1266 347 Z M 1266 301 " clip-rule="nonzero"/></clipPath><clipPath id="e65591e96e"><path d="M 1251 294 L 1416.003906 294 L 1416.003906 317 L 1251 317 Z M 1251 294 " clip-rule="nonzero"/></clipPath><clipPath id="f89dd793d7"><path d="M 1143 333 L 1416.003906 333 L 1416.003906 356 L 1143 356 Z M 1143 333 " clip-rule="nonzero"/></clipPath><clipPath id="237f3f089c"><path d="M 1207 366 L 1416.003906 366 L 1416.003906 413 L 1207 413 Z M 1207 366 " clip-rule="nonzero"/></clipPath><clipPath id="b9b39356d8"><path d="M 1040.425781 392 L 1416.003906 392 L 1416.003906 424.5 L 1040.425781 424.5 Z M 1040.425781 392 " clip-rule="nonzero"/></clipPath></defs><g clip-path="url(#1d2e9dbab5)"><path fill="#ffffff" d="M 1 0 L 1416.003906 0 L 1416.003906 424.5 L 1 424.5 Z M 1 0 " fill-opacity="1" fill-rule="nonzero"/><path fill="#13294a" d="M 1 0 L 1416.003906 0 L 1416.003906 424.5 L 1 424.5 Z M 1 0 " fill-opacity="1" fill-rule="nonzero"/></g><g clip-path="url(#235f3942d8)"><path fill="#e30000" d="M 254.628906 0 L 239.898438 12.59375 L 214.316406 34.464844 L 201.132812 45.730469 L 157.722656 82.84375 L 147.640625 91.460938 L -216.542969 91.460938 L -216.542969 0 Z M 254.628906 0 " fill-opacity="1" fill-rule="nonzero"/></g><g clip-path="url(#9e74ca022a)"><path fill="#13294a" d="M 48.699219 135.863281 L 47.148438 137.191406 L 39.394531 143.820312 L 23.117188 157.738281 L -216.542969 157.738281 L -216.542969 135.863281 Z M 48.699219 135.863281 " fill-opacity="1" fill-rule="nonzero"/></g><g clip-path="url(#cbb48460dd)"><path fill="#ffcc00" d="M 122.457031 91.460938 L 106.953125 104.71875 L 88.347656 120.621094 L 86.796875 121.945312 L 73.617188 133.214844 L 68.96875 137.191406 L -216.542969 137.191406 L -216.542969 91.460938 Z M 122.457031 91.460938 " fill-opacity="1" fill-rule="nonzero"/></g><g clip-path="url(#6eb7ac65a6)"><path fill="#e30000" d="M 137.511719 121.945312 L 132.859375 125.925781 L 111.925781 143.820312 L -216.542969 143.820312 L -216.542969 121.945312 Z M 137.511719 121.945312 " fill-opacity="1" fill-rule="nonzero"/></g><g clip-path="url(#e0142e8fd9)"><path fill="#13294a" d="M 246.203125 82.84375 L 241.550781 86.824219 L 220.617188 104.71875 L -216.542969 104.71875 L -216.542969 82.84375 Z M 246.203125 82.84375 " fill-opacity="1" fill-rule="nonzero"/></g><g clip-path="url(#11d4785d4f)"><path fill="#13294a" d="M 182.109375 25.847656 L 158.851562 45.730469 L 128.617188 71.578125 L -216.542969 71.578125 L -216.542969 25.847656 Z M 182.109375 25.847656 " fill-opacity="1" fill-rule="nonzero"/></g><g clip-path="url(#89062a4faa)"><path fill="#ffcc00" d="M 348.460938 0 L 305.824219 36.449219 L 294.96875 45.730469 L -216.542969 45.730469 L -216.542969 0 Z M 348.460938 0 " fill-opacity="1" fill-rule="nonzero"/></g><g clip-path="url(#99f03edbd2)"><path fill="#e30000" d="M 1134.714844 438.355469 L 1149.441406 425.761719 L 1175.027344 403.890625 L 1188.210938 392.621094 L 1231.621094 355.507812 L 1241.699219 346.890625 L 1605.886719 346.890625 L 1605.886719 438.355469 Z M 1134.714844 438.355469 " fill-opacity="1" fill-rule="nonzero"/></g><g clip-path="url(#aa9a917135)"><path fill="#13294a" d="M 1340.644531 302.488281 L 1342.195312 301.164062 L 1349.949219 294.535156 L 1366.226562 280.617188 L 1605.886719 280.617188 L 1605.886719 302.488281 Z M 1340.644531 302.488281 " fill-opacity="1" fill-rule="nonzero"/></g><g clip-path="url(#d061bfa344)"><path fill="#ffcc00" d="M 1266.886719 346.890625 L 1282.390625 333.636719 L 1300.996094 317.734375 L 1302.546875 316.40625 L 1315.722656 305.136719 L 1320.375 301.164062 L 1605.886719 301.164062 L 1605.886719 346.890625 Z M 1266.886719 346.890625 " fill-opacity="1" fill-rule="nonzero"/></g><g clip-path="url(#e65591e96e)"><path fill="#e30000" d="M 1251.832031 316.40625 L 1256.484375 312.429688 L 1277.417969 294.535156 L 1605.886719 294.535156 L 1605.886719 316.40625 Z M 1251.832031 316.40625 " fill-opacity="1" fill-rule="nonzero"/></g><g clip-path="url(#f89dd793d7)"><path fill="#13294a" d="M 1143.140625 355.507812 L 1147.792969 351.53125 L 1168.726562 333.636719 L 1605.886719 333.636719 L 1605.886719 355.507812 Z M 1143.140625 355.507812 " fill-opacity="1" fill-rule="nonzero"/></g><g clip-path="url(#237f3f089c)"><path fill="#13294a" d="M 1207.234375 412.507812 L 1230.492188 392.621094 L 1260.726562 366.777344 L 1605.886719 366.777344 L 1605.886719 412.507812 Z M 1207.234375 412.507812 " fill-opacity="1" fill-rule="nonzero"/></g><g clip-path="url(#b9b39356d8)"><path fill="#ffcc00" d="M 1040.882812 438.355469 L 1083.519531 401.902344 L 1094.375 392.621094 L 1605.886719 392.621094 L 1605.886719 438.355469 Z M 1040.882812 438.355469 " fill-opacity="1" fill-rule="nonzero"/></g><g fill="#e30000" fill-opacity="0.302"><g transform="translate(201.062967, 326.860194)"><g><path d="M 212.078125 -122.25 L 212.078125 -208.21875 L 5.0625 -208.21875 L 5.0625 -122.25 L 49.078125 -122.25 L 55.03125 -160.03125 L 77.9375 -160.03125 L 77.9375 -51.15625 L 52.65625 -45.21875 L 52.65625 0 L 165.09375 0 L 165.09375 -45.21875 L 139.5 -51.15625 L 139.5 -160.03125 L 162.40625 -160.03125 L 168.359375 -122.25 Z M 212.078125 -122.25 "/></g></g></g><g fill="#e30000" fill-opacity="0.302"><g transform="translate(417.909356, 326.860194)"><g><path d="M 188.28125 -37.1875 L 188.28125 -171.921875 L 144.859375 -208.21875 L 56.515625 -208.21875 L 13.09375 -171.921875 L 13.09375 -37.1875 L 58 0 L 143.078125 0 C 150.609375 -6.144531 158.140625 -12.335938 165.671875 -18.578125 C 173.210938 -24.828125 180.75 -31.03125 188.28125 -37.1875 Z M 118.984375 -156.765625 L 127.015625 -150.515625 L 127.015625 -58 L 118.6875 -51.15625 L 82.6875 -51.15625 L 74.359375 -58 L 74.359375 -150.515625 L 82.390625 -156.765625 Z M 118.984375 -156.765625 "/></g></g></g><g fill="#e30000" fill-opacity="0.302"><g transform="translate(619.287995, 326.860194)"><g><path d="M 212.078125 -122.25 L 212.078125 -208.21875 L 5.0625 -208.21875 L 5.0625 -122.25 L 49.078125 -122.25 L 55.03125 -160.03125 L 77.9375 -160.03125 L 77.9375 -51.15625 L 52.65625 -45.21875 L 52.65625 0 L 165.09375 0 L 165.09375 -45.21875 L 139.5 -51.15625 L 139.5 -160.03125 L 162.40625 -160.03125 L 168.359375 -122.25 Z M 212.078125 -122.25 "/></g></g></g><g fill="#e30000" fill-opacity="0.302"><g transform="translate(836.134406, 326.860194)"><g><path d="M 199.59375 -51.15625 L 159.4375 -208.21875 L 39.265625 -208.21875 L 39.265625 -162.703125 L 58.59375 -156.765625 L 28.265625 -51.15625 L 5.359375 -45.21875 L 5.359375 0 L 94.59375 0 L 94.59375 -45.21875 L 80.015625 -51.15625 L 85.078125 -69.609375 L 129.984375 -69.609375 L 135.34375 -51.15625 L 119.578125 -45.21875 L 119.578125 0 L 225.171875 0 L 225.171875 -45.21875 Z M 106.78125 -152 L 120.171875 -105.296875 L 93.703125 -105.296875 Z M 106.78125 -152 "/></g></g></g><g fill="#e30000" fill-opacity="0.302"><g transform="translate(1066.663819, 326.860194)"><g><path d="M 122.546875 -162.703125 L 122.546875 -208.21875 L 13.09375 -208.21875 L 13.09375 -162.703125 L 35.6875 -156.765625 L 35.6875 -51.15625 L 13.09375 -45.21875 L 13.09375 0 L 196.609375 0 L 196.609375 -79.421875 L 152.59375 -79.421875 L 146.640625 -51.15625 L 97.265625 -51.15625 L 97.265625 -156.765625 Z M 122.546875 -162.703125 "/></g></g></g><g fill="#e30000" fill-opacity="0.502"><g transform="translate(187.917027, 313.714257)"><g><path d="M 212.078125 -122.25 L 212.078125 -208.21875 L 5.0625 -208.21875 L 5.0625 -122.25 L 49.078125 -122.25 L 55.03125 -160.03125 L 77.9375 -160.03125 L 77.9375 -51.15625 L 52.65625 -45.21875 L 52.65625 0 L 165.09375 0 L 165.09375 -45.21875 L 139.5 -51.15625 L 139.5 -160.03125 L 162.40625 -160.03125 L 168.359375 -122.25 Z M 212.078125 -122.25 "/></g></g></g><g fill="#e30000" fill-opacity="0.502"><g transform="translate(404.763416, 313.714257)"><g><path d="M 188.28125 -37.1875 L 188.28125 -171.921875 L 144.859375 -208.21875 L 56.515625 -208.21875 L 13.09375 -171.921875 L 13.09375 -37.1875 L 58 0 L 143.078125 0 C 150.609375 -6.144531 158.140625 -12.335938 165.671875 -18.578125 C 173.210938 -24.828125 180.75 -31.03125 188.28125 -37.1875 Z M 118.984375 -156.765625 L 127.015625 -150.515625 L 127.015625 -58 L 118.6875 -51.15625 L 82.6875 -51.15625 L 74.359375 -58 L 74.359375 -150.515625 L 82.390625 -156.765625 Z M 118.984375 -156.765625 "/></g></g></g><g fill="#e30000" fill-opacity="0.502"><g transform="translate(606.142055, 313.714257)"><g><path d="M 212.078125 -122.25 L 212.078125 -208.21875 L 5.0625 -208.21875 L 5.0625 -122.25 L 49.078125 -122.25 L 55.03125 -160.03125 L 77.9375 -160.03125 L 77.9375 -51.15625 L 52.65625 -45.21875 L 52.65625 0 L 165.09375 0 L 165.09375 -45.21875 L 139.5 -51.15625 L 139.5 -160.03125 L 162.40625 -160.03125 L 168.359375 -122.25 Z M 212.078125 -122.25 "/></g></g></g><g fill="#e30000" fill-opacity="0.502"><g transform="translate(822.988467, 313.714257)"><g><path d="M 199.59375 -51.15625 L 159.4375 -208.21875 L 39.265625 -208.21875 L 39.265625 -162.703125 L 58.59375 -156.765625 L 28.265625 -51.15625 L 5.359375 -45.21875 L 5.359375 0 L 94.59375 0 L 94.59375 -45.21875 L 80.015625 -51.15625 L 85.078125 -69.609375 L 129.984375 -69.609375 L 135.34375 -51.15625 L 119.578125 -45.21875 L 119.578125 0 L 225.171875 0 L 225.171875 -45.21875 Z M 106.78125 -152 L 120.171875 -105.296875 L 93.703125 -105.296875 Z M 106.78125 -152 "/></g></g></g><g fill="#e30000" fill-opacity="0.502"><g transform="translate(1053.51788, 313.714257)"><g><path d="M 122.546875 -162.703125 L 122.546875 -208.21875 L 13.09375 -208.21875 L 13.09375 -162.703125 L 35.6875 -156.765625 L 35.6875 -51.15625 L 13.09375 -45.21875 L 13.09375 0 L 196.609375 0 L 196.609375 -79.421875 L 152.59375 -79.421875 L 146.640625 -51.15625 L 97.265625 -51.15625 L 97.265625 -156.765625 Z M 122.546875 -162.703125 "/></g></g></g><g fill="#ffffff" fill-opacity="1"><g transform="translate(174.77109, 300.568318)"><g><path d="M 212.078125 -122.25 L 212.078125 -208.21875 L 5.0625 -208.21875 L 5.0625 -122.25 L 49.078125 -122.25 L 55.03125 -160.03125 L 77.9375 -160.03125 L 77.9375 -51.15625 L 52.65625 -45.21875 L 52.65625 0 L 165.09375 0 L 165.09375 -45.21875 L 139.5 -51.15625 L 139.5 -160.03125 L 162.40625 -160.03125 L 168.359375 -122.25 Z M 212.078125 -122.25 "/></g></g></g><g fill="#ffffff" fill-opacity="1"><g transform="translate(391.617479, 300.568318)"><g><path d="M 188.28125 -37.1875 L 188.28125 -171.921875 L 144.859375 -208.21875 L 56.515625 -208.21875 L 13.09375 -171.921875 L 13.09375 -37.1875 L 58 0 L 143.078125 0 C 150.609375 -6.144531 158.140625 -12.335938 165.671875 -18.578125 C 173.210938 -24.828125 180.75 -31.03125 188.28125 -37.1875 Z M 118.984375 -156.765625 L 127.015625 -150.515625 L 127.015625 -58 L 118.6875 -51.15625 L 82.6875 -51.15625 L 74.359375 -58 L 74.359375 -150.515625 L 82.390625 -156.765625 Z M 118.984375 -156.765625 "/></g></g></g><g fill="#ffffff" fill-opacity="1"><g transform="translate(592.996118, 300.568318)"><g><path d="M 212.078125 -122.25 L 212.078125 -208.21875 L 5.0625 -208.21875 L 5.0625 -122.25 L 49.078125 -122.25 L 55.03125 -160.03125 L 77.9375 -160.03125 L 77.9375 -51.15625 L 52.65625 -45.21875 L 52.65625 0 L 165.09375 0 L 165.09375 -45.21875 L 139.5 -51.15625 L 139.5 -160.03125 L 162.40625 -160.03125 L 168.359375 -122.25 Z M 212.078125 -122.25 "/></g></g></g><g fill="#ffffff" fill-opacity="1"><g transform="translate(809.84253, 300.568318)"><g><path d="M 199.59375 -51.15625 L 159.4375 -208.21875 L 39.265625 -208.21875 L 39.265625 -162.703125 L 58.59375 -156.765625 L 28.265625 -51.15625 L 5.359375 -45.21875 L 5.359375 0 L 94.59375 0 L 94.59375 -45.21875 L 80.015625 -51.15625 L 85.078125 -69.609375 L 129.984375 -69.609375 L 135.34375 -51.15625 L 119.578125 -45.21875 L 119.578125 0 L 225.171875 0 L 225.171875 -45.21875 Z M 106.78125 -152 L 120.171875 -105.296875 L 93.703125 -105.296875 Z M 106.78125 -152 "/></g></g></g><g fill="#ffffff" fill-opacity="1"><g transform="translate(1040.371943, 300.568318)"><g><path d="M 122.546875 -162.703125 L 122.546875 -208.21875 L 13.09375 -208.21875 L 13.09375 -162.703125 L 35.6875 -156.765625 L 35.6875 -51.15625 L 13.09375 -45.21875 L 13.09375 0 L 196.609375 0 L 196.609375 -79.421875 L 152.59375 -79.421875 L 146.640625 -51.15625 L 97.265625 -51.15625 L 97.265625 -156.765625 Z M 122.546875 -162.703125 "/></g></g></g></svg>