<svg xmlns="http://www.w3.org/2000/svg" xmlns:xlink="http://www.w3.org/1999/xlink" width="1890" zoomAndPan="magnify" viewBox="0 0 1417.5 425.249996" height="567" preserveAspectRatio="xMidYMid meet" version="1.0"><defs><g/><clipPath id="7b2693503b"><path d="M 1 0 L 1416.003906 0 L 1416.003906 424.5 L 1 424.5 Z M 1 0 " clip-rule="nonzero"/></clipPath><clipPath id="9c5283091c"><path d="M 1 0 L 255 0 L 255 92 L 1 92 Z M 1 0 " clip-rule="nonzero"/></clipPath><clipPath id="860374eaae"><path d="M 1 135 L 49 135 L 49 157.972656 L 1 157.972656 Z M 1 135 " clip-rule="nonzero"/></clipPath><clipPath id="6297a43379"><path d="M 1 91 L 123 91 L 123 138 L 1 138 Z M 1 91 " clip-rule="nonzero"/></clipPath><clipPath id="92ea0cab20"><path d="M 1 121 L 138 121 L 138 144 L 1 144 Z M 1 121 " clip-rule="nonzero"/></clipPath><clipPath id="92c10c4ed3"><path d="M 1 82 L 247 82 L 247 105 L 1 105 Z M 1 82 " clip-rule="nonzero"/></clipPath><clipPath id="501dbf53ad"><path d="M 1 25 L 183 25 L 183 72 L 1 72 Z M 1 25 " clip-rule="nonzero"/></clipPath><clipPath id="4c60a64bb6"><path d="M 1 0 L 349 0 L 349 46 L 1 46 Z M 1 0 " clip-rule="nonzero"/></clipPath><clipPath id="823b0f08bb"><path d="M 1134 346 L 1416.003906 346 L 1416.003906 424.5 L 1134 424.5 Z M 1134 346 " clip-rule="nonzero"/></clipPath><clipPath id="8f359f6102"><path d="M 1340 280.605469 L 1416.003906 280.605469 L 1416.003906 303 L 1340 303 Z M 1340 280.605469 " clip-rule="nonzero"/></clipPath><clipPath id="fd24577e25"><path d="M 1266 301 L 1416.003906 301 L 1416.003906 347 L 1266 347 Z M 1266 301 " clip-rule="nonzero"/></clipPath><clipPath id="664a8516d6"><path d="M 1251 294 L 1416.003906 294 L 1416.003906 317 L 1251 317 Z M 1251 294 " clip-rule="nonzero"/></clipPath><clipPath id="7226e1ada0"><path d="M 1143 333 L 1416.003906 333 L 1416.003906 356 L 1143 356 Z M 1143 333 " clip-rule="nonzero"/></clipPath><clipPath id="127f2ff416"><path d="M 1207 366 L 1416.003906 366 L 1416.003906 413 L 1207 413 Z M 1207 366 " clip-rule="nonzero"/></clipPath><clipPath id="b09e2a1ee0"><path d="M 1040.425781 392 L 1416.003906 392 L 1416.003906 424.5 L 1040.425781 424.5 Z M 1040.425781 392 " clip-rule="nonzero"/></clipPath><clipPath id="df5c5fdaa5"><path d="M 686 300.753906 L 732 300.753906 L 732 346 L 686 346 Z M 686 300.753906 " clip-rule="nonzero"/></clipPath><clipPath id="03027c0144"><path d="M 683.394531 342 L 690 342 L 690 349.417969 L 683.394531 349.417969 Z M 683.394531 342 " clip-rule="nonzero"/></clipPath></defs><g clip-path="url(#7b2693503b)"><path fill="#ffffff" d="M 1 0 L 1416.003906 0 L 1416.003906 424.5 L 1 424.5 Z M 1 0 " fill-opacity="1" fill-rule="nonzero"/><path fill="#ffffff" d="M 1 0 L 1416.003906 0 L 1416.003906 424.5 L 1 424.5 Z M 1 0 " fill-opacity="1" fill-rule="nonzero"/></g><g clip-path="url(#9c5283091c)"><path fill="#e30000" d="M 254.628906 0 L 239.898438 12.59375 L 214.316406 34.464844 L 201.132812 45.730469 L 157.722656 82.84375 L 147.640625 91.460938 L -216.542969 91.460938 L -216.542969 0 Z M 254.628906 0 " fill-opacity="1" fill-rule="nonzero"/></g><g clip-path="url(#860374eaae)"><path fill="#13294a" d="M 48.699219 135.863281 L 47.148438 137.191406 L 39.394531 143.820312 L 23.117188 157.738281 L -216.542969 157.738281 L -216.542969 135.863281 Z M 48.699219 135.863281 " fill-opacity="1" fill-rule="nonzero"/></g><g clip-path="url(#6297a43379)"><path fill="#ffcc00" d="M 122.457031 91.460938 L 106.953125 104.71875 L 88.347656 120.621094 L 86.796875 121.945312 L 73.617188 133.214844 L 68.96875 137.191406 L -216.542969 137.191406 L -216.542969 91.460938 Z M 122.457031 91.460938 " fill-opacity="1" fill-rule="nonzero"/></g><g clip-path="url(#92ea0cab20)"><path fill="#e30000" d="M 137.511719 121.945312 L 132.859375 125.925781 L 111.925781 143.820312 L -216.542969 143.820312 L -216.542969 121.945312 Z M 137.511719 121.945312 " fill-opacity="1" fill-rule="nonzero"/></g><g clip-path="url(#92c10c4ed3)"><path fill="#13294a" d="M 246.203125 82.84375 L 241.550781 86.824219 L 220.617188 104.71875 L -216.542969 104.71875 L -216.542969 82.84375 Z M 246.203125 82.84375 " fill-opacity="1" fill-rule="nonzero"/></g><g clip-path="url(#501dbf53ad)"><path fill="#13294a" d="M 182.109375 25.847656 L 158.851562 45.730469 L 128.617188 71.578125 L -216.542969 71.578125 L -216.542969 25.847656 Z M 182.109375 25.847656 " fill-opacity="1" fill-rule="nonzero"/></g><g clip-path="url(#4c60a64bb6)"><path fill="#ffcc00" d="M 348.460938 0 L 305.824219 36.449219 L 294.96875 45.730469 L -216.542969 45.730469 L -216.542969 0 Z M 348.460938 0 " fill-opacity="1" fill-rule="nonzero"/></g><g clip-path="url(#823b0f08bb)"><path fill="#e30000" d="M 1134.714844 438.355469 L 1149.441406 425.761719 L 1175.027344 403.890625 L 1188.210938 392.621094 L 1231.621094 355.507812 L 1241.699219 346.890625 L 1605.886719 346.890625 L 1605.886719 438.355469 Z M 1134.714844 438.355469 " fill-opacity="1" fill-rule="nonzero"/></g><g clip-path="url(#8f359f6102)"><path fill="#13294a" d="M 1340.644531 302.488281 L 1342.195312 301.164062 L 1349.949219 294.535156 L 1366.226562 280.617188 L 1605.886719 280.617188 L 1605.886719 302.488281 Z M 1340.644531 302.488281 " fill-opacity="1" fill-rule="nonzero"/></g><g clip-path="url(#fd24577e25)"><path fill="#ffcc00" d="M 1266.886719 346.890625 L 1282.390625 333.636719 L 1300.996094 317.734375 L 1302.546875 316.40625 L 1315.722656 305.136719 L 1320.375 301.164062 L 1605.886719 301.164062 L 1605.886719 346.890625 Z M 1266.886719 346.890625 " fill-opacity="1" fill-rule="nonzero"/></g><g clip-path="url(#664a8516d6)"><path fill="#e30000" d="M 1251.832031 316.40625 L 1256.484375 312.429688 L 1277.417969 294.535156 L 1605.886719 294.535156 L 1605.886719 316.40625 Z M 1251.832031 316.40625 " fill-opacity="1" fill-rule="nonzero"/></g><g clip-path="url(#7226e1ada0)"><path fill="#13294a" d="M 1143.140625 355.507812 L 1147.792969 351.53125 L 1168.726562 333.636719 L 1605.886719 333.636719 L 1605.886719 355.507812 Z M 1143.140625 355.507812 " fill-opacity="1" fill-rule="nonzero"/></g><g clip-path="url(#127f2ff416)"><path fill="#13294a" d="M 1207.234375 412.507812 L 1230.492188 392.621094 L 1260.726562 366.777344 L 1605.886719 366.777344 L 1605.886719 412.507812 Z M 1207.234375 412.507812 " fill-opacity="1" fill-rule="nonzero"/></g><g clip-path="url(#b09e2a1ee0)"><path fill="#ffcc00" d="M 1040.882812 438.355469 L 1083.519531 401.902344 L 1094.375 392.621094 L 1605.886719 392.621094 L 1605.886719 438.355469 Z M 1040.882812 438.355469 " fill-opacity="1" fill-rule="nonzero"/></g><path stroke-linecap="butt" transform="matrix(0.74868, 0, 0, 0.74868, 613.420337, 145.775607)" fill="none" stroke-linejoin="miter" d="M 121.116331 71.471901 L 121.116331 47.022605 L 72.958627 47.022605 L 72.958627 71.471901 L 80.456203 74.675458 L 66.400205 123.495786 L 51.671148 74.675458 L 59.523515 71.471901 L 59.523515 47.022605 L 2.89256 47.022605 L 2.89256 71.471901 L 13.437166 74.675458 L 39.018664 159.001006 L 83.190183 159.001006 L 110.222151 74.675458 Z M 222.831871 65.263053 L 201.074816 47.022605 L 152.134484 47.022605 L 130.382646 65.263053 L 130.382646 95.806411 L 149.400504 111.469404 L 187.796229 117.871301 L 190.84326 120.605281 L 190.84326 128.102856 L 186.857075 131.462938 L 163.503459 131.462938 L 160.299902 119.78613 L 130.382646 119.78613 L 130.382646 140.134456 L 153.073637 159.001006 L 201.231341 159.001006 L 224.120599 140.134456 L 224.120599 108.109322 L 205.410574 93.57853 L 166.863541 87.171417 L 163.346933 84.437436 L 163.346933 77.879014 L 167.484426 74.675458 L 189.711058 74.675458 L 192.914615 86.352266 L 222.831871 86.352266 Z M 222.831871 65.263053 " stroke="#2c3f62" stroke-width="11.9988" stroke-opacity="1" stroke-miterlimit="4"/><g fill="#ffcc00" fill-opacity="1"><g transform="translate(613.420337, 264.815653)"><g><path d="M 90.671875 -65.515625 L 90.671875 -83.84375 L 54.625 -83.84375 L 54.625 -65.515625 L 60.25 -63.125 L 49.703125 -26.59375 L 38.6875 -63.125 L 44.5625 -65.515625 L 44.5625 -83.84375 L 2.15625 -83.84375 L 2.15625 -65.515625 L 10.0625 -63.125 L 29.234375 0 L 62.28125 0 L 82.53125 -63.125 Z M 90.671875 -65.515625 "/></g></g></g><g fill="#ffcc00" fill-opacity="1"><g transform="translate(706.238528, 264.815653)"><g><path d="M 74.03125 -70.1875 L 57.734375 -83.84375 L 21.078125 -83.84375 L 4.796875 -70.1875 L 4.796875 -47.3125 L 19.046875 -35.578125 L 47.796875 -30.78125 L 50.0625 -28.75 L 50.0625 -23.125 L 47.078125 -20.609375 L 29.59375 -20.609375 L 27.1875 -29.34375 L 4.796875 -29.34375 L 4.796875 -14.140625 L 21.796875 0 L 57.859375 0 L 74.984375 -14.140625 L 74.984375 -38.09375 L 60.96875 -48.984375 L 32.09375 -53.78125 L 29.46875 -55.8125 L 29.46875 -60.734375 L 32.578125 -63.125 L 49.234375 -63.125 L 51.625 -54.375 L 74.03125 -54.375 Z M 74.03125 -70.1875 "/></g></g></g><g clip-path="url(#df5c5fdaa5)"><path fill="#000000" d="M 726.824219 305.882812 C 723.550781 302.605469 719.199219 300.800781 714.574219 300.800781 C 709.941406 300.800781 705.589844 302.605469 702.316406 305.882812 C 699.039062 309.160156 697.238281 313.519531 697.238281 318.15625 C 697.238281 322.1875 698.605469 326.003906 701.113281 329.089844 L 697.765625 332.4375 L 697.003906 331.675781 L 686.855469 341.835938 L 690.917969 345.902344 L 701.0625 335.742188 L 700.304688 334.980469 L 703.648438 331.628906 C 706.730469 334.144531 710.542969 335.507812 714.566406 335.507812 C 719.199219 335.507812 723.550781 333.703125 726.824219 330.425781 C 733.585938 323.660156 733.585938 312.648438 726.824219 305.882812 Z M 724.953125 328.546875 C 722.179688 331.328125 718.492188 332.855469 714.566406 332.855469 C 710.644531 332.855469 706.960938 331.324219 704.183594 328.546875 C 701.414062 325.773438 699.886719 322.082031 699.886719 318.15625 C 699.886719 314.226562 701.414062 310.535156 704.1875 307.757812 C 706.957031 304.980469 710.644531 303.453125 714.570312 303.453125 C 718.492188 303.453125 722.179688 304.980469 724.953125 307.757812 C 730.675781 313.492188 730.675781 322.820312 724.953125 328.546875 Z M 724.953125 328.546875 " fill-opacity="1" fill-rule="nonzero"/></g><path fill="#000000" d="M 714.570312 305.429688 C 711.175781 305.429688 707.984375 306.753906 705.585938 309.15625 C 705.222656 309.519531 705.222656 310.109375 705.585938 310.46875 C 705.945312 310.832031 706.535156 310.832031 706.894531 310.46875 C 708.945312 308.417969 711.671875 307.289062 714.570312 307.289062 C 717.472656 307.289062 720.195312 308.417969 722.246094 310.46875 C 722.425781 310.652344 722.664062 310.742188 722.902344 310.742188 C 723.136719 310.742188 723.375 310.652344 723.558594 310.46875 C 723.921875 310.109375 723.921875 309.519531 723.558594 309.15625 C 721.15625 306.753906 717.964844 305.429688 714.570312 305.429688 Z M 714.570312 305.429688 " fill-opacity="1" fill-rule="nonzero"/><g clip-path="url(#03027c0144)"><path fill="#000000" d="M 684.472656 344.222656 C 683.4375 345.257812 683.4375 346.9375 684.472656 347.972656 L 684.789062 348.289062 C 685.824219 349.324219 687.503906 349.324219 688.535156 348.289062 L 689.933594 346.890625 L 685.871094 342.824219 Z M 684.472656 344.222656 " fill-opacity="1" fill-rule="nonzero"/></g><g fill="#13294a" fill-opacity="1"><g transform="translate(625.168168, 390.613265)"><g><path d="M 21.109375 -4.484375 L 21.109375 -16.609375 L 15.859375 -20.953125 L 1.3125 -20.953125 L 1.3125 -16.375 L 3.59375 -15.78125 L 3.59375 -5.15625 L 1.3125 -4.546875 L 1.3125 0 L 15.71875 0 Z M 9.796875 -15.78125 L 13.65625 -15.78125 L 14.90625 -14.734375 L 14.90625 -6.234375 L 13.59375 -5.15625 L 9.796875 -5.15625 Z M 9.796875 -15.78125 "/></g></g></g><g fill="#13294a" fill-opacity="1"><g transform="translate(647.589896, 390.613265)"><g><path d="M 18.6875 -7.328125 L 13.078125 -7.328125 L 12.484375 -5.15625 L 8.140625 -5.15625 L 7.359375 -5.78125 L 7.359375 -7.71875 L 15.234375 -9.015625 L 18.734375 -11.734375 L 18.734375 -17.421875 L 14.453125 -20.953125 L 5.453125 -20.953125 L 1.203125 -17.421875 L 1.203125 -3.40625 L 5.265625 0 L 14.4375 0 L 18.6875 -3.53125 Z M 11.9375 -13.5625 L 7.359375 -12.8125 L 7.359375 -15.171875 L 8.140625 -15.8125 L 11.765625 -15.8125 L 12.515625 -15.171875 L 12.515625 -14.078125 Z M 11.9375 -13.5625 "/></g></g></g><g fill="#13294a" fill-opacity="1"><g transform="translate(667.556903, 390.613265)"><g><path d="M 21.34375 -12.296875 L 21.34375 -20.953125 L 0.515625 -20.953125 L 0.515625 -12.296875 L 4.9375 -12.296875 L 5.53125 -16.109375 L 7.84375 -16.109375 L 7.84375 -5.15625 L 5.296875 -4.546875 L 5.296875 0 L 16.609375 0 L 16.609375 -4.546875 L 14.046875 -5.15625 L 14.046875 -16.109375 L 16.34375 -16.109375 L 16.9375 -12.296875 Z M 21.34375 -12.296875 "/></g></g></g><g fill="#13294a" fill-opacity="1"><g transform="translate(689.379925, 390.613265)"><g><path d="M 21.140625 -4.578125 L 18.859375 -5.171875 L 18.859375 -17.546875 L 14.796875 -20.953125 L 5.625 -20.953125 L 1.5625 -17.546875 L 1.5625 -13.59375 L 7.15625 -13.59375 L 7.75 -15.78125 L 11.921875 -15.78125 L 12.6875 -15.171875 L 12.6875 -13.171875 L 4.8125 -11.9375 L 1.3125 -9.21875 L 1.3125 -3.53125 L 5.59375 0 L 11.578125 0 L 13.5625 -1.640625 L 14.15625 0 L 21.140625 0 Z M 8.109375 -7.390625 L 12.6875 -8.4375 L 12.6875 -5.78125 L 11.921875 -5.15625 L 8.296875 -5.15625 L 7.546875 -5.78125 L 7.546875 -6.890625 Z M 8.109375 -7.390625 "/></g></g></g><g fill="#13294a" fill-opacity="1"><g transform="translate(711.113132, 390.613265)"><g><path d="M 12.328125 -16.375 L 12.328125 -20.953125 L 1.3125 -20.953125 L 1.3125 -16.375 L 3.59375 -15.78125 L 3.59375 -5.15625 L 1.3125 -4.546875 L 1.3125 0 L 19.78125 0 L 19.78125 -8 L 15.359375 -8 L 14.765625 -5.15625 L 9.796875 -5.15625 L 9.796875 -15.78125 Z M 12.328125 -16.375 "/></g></g></g><g fill="#13294a" fill-opacity="1"><g transform="translate(731.409435, 390.613265)"><g><path d="M 12.328125 -16.375 L 12.328125 -20.953125 L 1.3125 -20.953125 L 1.3125 -16.375 L 3.59375 -15.78125 L 3.59375 -5.15625 L 1.3125 -4.546875 L 1.3125 0 L 19.78125 0 L 19.78125 -8 L 15.359375 -8 L 14.765625 -5.15625 L 9.796875 -5.15625 L 9.796875 -15.78125 Z M 12.328125 -16.375 "/></g></g></g><g fill="#13294a" fill-opacity="1"><g transform="translate(751.705738, 390.613265)"><g><path d="M 18.6875 -7.328125 L 13.078125 -7.328125 L 12.484375 -5.15625 L 8.140625 -5.15625 L 7.359375 -5.78125 L 7.359375 -7.71875 L 15.234375 -9.015625 L 18.734375 -11.734375 L 18.734375 -17.421875 L 14.453125 -20.953125 L 5.453125 -20.953125 L 1.203125 -17.421875 L 1.203125 -3.40625 L 5.265625 0 L 14.4375 0 L 18.6875 -3.53125 Z M 11.9375 -13.5625 L 7.359375 -12.8125 L 7.359375 -15.171875 L 8.140625 -15.8125 L 11.765625 -15.8125 L 12.515625 -15.171875 L 12.515625 -14.078125 Z M 11.9375 -13.5625 "/></g></g></g><g fill="#13294a" fill-opacity="1"><g transform="translate(771.672746, 390.613265)"><g><path d="M 18.5 -17.546875 L 14.4375 -20.953125 L 5.265625 -20.953125 L 1.203125 -17.546875 L 1.203125 -11.828125 L 4.765625 -8.890625 L 11.9375 -7.6875 L 12.515625 -7.1875 L 12.515625 -5.78125 L 11.765625 -5.15625 L 7.390625 -5.15625 L 6.796875 -7.328125 L 1.203125 -7.328125 L 1.203125 -3.53125 L 5.453125 0 L 14.453125 0 L 18.734375 -3.53125 L 18.734375 -9.515625 L 15.234375 -12.25 L 8.015625 -13.4375 L 7.359375 -13.953125 L 7.359375 -15.171875 L 8.140625 -15.78125 L 12.296875 -15.78125 L 12.90625 -13.59375 L 18.5 -13.59375 Z M 18.5 -17.546875 "/></g></g></g></svg>